<svg width="44" height="43" viewBox="0 0 44 43" fill="none" xmlns="http://www.w3.org/2000/svg">
<path d="M1 29.6985L17.617 13.0815L26.4558 11.3137L32.1127 16.9706L29.9914 25.4559L13.3744 42.0729L1 29.6985Z" fill="#FF0000" stroke="#FF0000"/>
<circle cx="25.7487" cy="16.9706" r="1.5" transform="rotate(45 25.7487 16.9706)" fill="white"/>
<path d="M35.1412 12.3238C42.9825 5.51588 37.2472 8.17207 30.624 11.8342C24.1816 15.3963 24.7075 20.1798 30.6841 15.8818C32.0219 14.9197 33.5036 13.7455 35.1412 12.3238Z" stroke="#FF0000"/>
<path d="M8.30447 36.5362L6.29363 34.5254L6.86125 33.9577C7.03618 33.7828 7.22953 33.6668 7.4413 33.6097C7.65306 33.5526 7.86667 33.5591 8.08211 33.629C8.29848 33.6981 8.49966 33.8247 8.68564 34.0088L8.81408 34.1373C9.00375 34.3269 9.13311 34.53 9.20216 34.7463C9.27213 34.9618 9.2772 35.1758 9.21735 35.3885C9.15843 35.6003 9.03965 35.7973 8.86104 35.9796L8.30447 36.5362ZM6.777 34.4784L8.3528 36.0542L8.63178 35.7752C8.83618 35.5708 8.93147 35.3485 8.91766 35.1082C8.90477 34.8669 8.78093 34.6289 8.54615 34.3942L8.42876 34.2768C8.20042 34.0484 7.96933 33.925 7.73547 33.9066C7.5016 33.8864 7.28524 33.9738 7.08636 34.169L6.777 34.4784ZM10.3982 34.4425L10.1427 34.698L8.64835 33.2037L8.90385 32.9482L10.3982 34.4425ZM8.23127 32.828C8.18984 32.7866 8.16728 32.7392 8.1636 32.6858C8.16083 32.6314 8.18431 32.5794 8.23403 32.5297C8.28375 32.48 8.33577 32.4565 8.39009 32.4593C8.44441 32.462 8.49229 32.4841 8.53372 32.5256C8.57515 32.567 8.59679 32.6144 8.59863 32.6678C8.60047 32.7212 8.57654 32.7728 8.52682 32.8225C8.4771 32.8722 8.42554 32.8962 8.37214 32.8943C8.31966 32.8916 8.2727 32.8695 8.23127 32.828ZM11.282 32.7659C11.213 32.6968 11.1334 32.6697 11.0431 32.6844C10.9529 32.6973 10.8291 32.7548 10.6716 32.857C10.5151 32.9583 10.3793 33.0278 10.2642 33.0656C10.15 33.1024 10.0478 33.1125 9.9576 33.0959C9.86829 33.0785 9.78681 33.0329 9.71315 32.9592C9.5907 32.8368 9.53868 32.6816 9.55709 32.4938C9.57643 32.3051 9.66666 32.1301 9.82778 31.969C9.99719 31.7996 10.1781 31.7061 10.3705 31.6886C10.5639 31.6702 10.7287 31.7292 10.865 31.8654L10.6081 32.1223C10.5381 32.0523 10.4479 32.0219 10.3374 32.0311C10.2278 32.0394 10.1279 32.0887 10.0377 32.1789C9.94471 32.2719 9.89223 32.3649 9.88026 32.4579C9.86829 32.5509 9.895 32.6301 9.96037 32.6954C10.0221 32.7571 10.0929 32.7792 10.1731 32.7617C10.2532 32.7442 10.371 32.6862 10.5266 32.5877C10.6831 32.4883 10.8208 32.4188 10.9395 32.3792C11.0583 32.3396 11.1647 32.329 11.2586 32.3474C11.3525 32.364 11.4395 32.4123 11.5196 32.4924C11.6531 32.6259 11.707 32.7866 11.6812 32.9744C11.6545 33.1613 11.556 33.3399 11.3856 33.5103C11.2659 33.63 11.1389 33.7147 11.0045 33.7644C10.87 33.8141 10.7388 33.8275 10.6108 33.8044C10.4829 33.7796 10.3747 33.723 10.2863 33.6346L10.5418 33.3791C10.632 33.4601 10.7342 33.4942 10.8484 33.4813C10.9626 33.4665 11.0721 33.4067 11.1771 33.3017C11.2738 33.2051 11.3318 33.1084 11.3511 33.0117C11.3704 32.9132 11.3474 32.8312 11.282 32.7659ZM11.9919 31.4649L11.9988 31.7922L12.5236 32.317L12.2681 32.5725L10.1468 30.4512L10.4023 30.1957L11.6853 31.4787L11.6577 31.1776L11.6315 30.2206L11.9422 29.9098L11.985 31.1155L13.5042 31.3365L13.2045 31.6362L11.9919 31.4649ZM12.8717 30.4471C12.7253 30.3007 12.6221 30.1405 12.5623 29.9664C12.5034 29.7915 12.4932 29.6212 12.5319 29.4555C12.5715 29.2888 12.6571 29.1396 12.7888 29.008C12.9923 28.8045 13.2271 28.7106 13.4931 28.7262C13.7601 28.741 14.0106 28.8653 14.2444 29.0991L14.2624 29.1171C14.4079 29.2626 14.5105 29.4214 14.5704 29.5936C14.6302 29.7639 14.6403 29.9333 14.6008 30.1018C14.5621 30.2694 14.4755 30.4204 14.3411 30.5548C14.1386 30.7573 13.9038 30.8513 13.6368 30.8365C13.3707 30.8209 13.1216 30.697 12.8896 30.465L12.8717 30.4471ZM13.1589 30.2206C13.3246 30.3863 13.4959 30.4811 13.6727 30.5051C13.8504 30.5281 14.0037 30.4751 14.1326 30.3462C14.2624 30.2164 14.3149 30.0627 14.29 29.885C14.2642 29.7063 14.1597 29.5254 13.9765 29.3422C13.8126 29.1783 13.6409 29.0849 13.4614 29.0618C13.2818 29.037 13.1276 29.089 12.9987 29.2179C12.8726 29.344 12.821 29.496 12.844 29.6737C12.8671 29.8514 12.972 30.0337 13.1589 30.2206ZM14.0608 27.7913L14.2569 27.9708C14.2274 27.713 14.3047 27.492 14.4889 27.3079C14.8047 26.9921 15.1421 27.011 15.5012 27.3645L16.4887 28.352L16.2332 28.6075L15.2443 27.6186C15.1357 27.5118 15.0312 27.457 14.9308 27.4543C14.8314 27.4506 14.7306 27.4999 14.6284 27.6021C14.5455 27.6849 14.4949 27.7798 14.4765 27.8866C14.458 27.9934 14.4673 28.1002 14.5041 28.207L15.5689 29.2718L15.3134 29.5273L13.8191 28.033L14.0608 27.7913ZM18.8669 25.9738L17.5493 27.2913L17.3657 27.1076L17.2883 25.6382C17.2745 25.4181 17.2506 25.2524 17.2165 25.141C17.1824 25.0277 17.1263 24.932 17.048 24.8537C16.943 24.7488 16.8252 24.6945 16.6945 24.6908C16.5637 24.6871 16.4454 24.7382 16.3395 24.8441C16.2125 24.9711 16.1499 25.1065 16.1517 25.2501C16.1535 25.3919 16.2189 25.5272 16.3478 25.6561L16.0923 25.9116C15.9072 25.7266 15.817 25.5176 15.8216 25.2846C15.8271 25.0508 15.9298 24.8339 16.1296 24.6341C16.3165 24.4472 16.5135 24.3487 16.7207 24.3386C16.9269 24.3275 17.1115 24.4035 17.2745 24.5665C17.4725 24.7644 17.582 25.1263 17.6032 25.652L17.6488 26.7748L18.6583 25.7652L18.8669 25.9738ZM19.5408 23.5845C19.8401 23.8838 20.0113 24.1572 20.0546 24.4049C20.0979 24.6526 20.0109 24.885 19.7936 25.1023C19.579 25.3169 19.3493 25.4048 19.1044 25.3661C18.8586 25.3265 18.5925 25.1672 18.3062 24.8883L17.965 24.5471C17.6695 24.2516 17.501 23.9809 17.4596 23.7351C17.4181 23.4892 17.5065 23.2572 17.7247 23.039C17.9411 22.8226 18.1699 22.7329 18.4111 22.7697C18.6514 22.8056 18.9175 22.9667 19.2094 23.2531L19.5408 23.5845ZM18.9359 23.4906C18.7196 23.2743 18.5317 23.1472 18.3725 23.1094C18.2122 23.0708 18.0663 23.1173 17.9347 23.2489C17.8039 23.3797 17.7579 23.5242 17.7965 23.6826C17.8352 23.841 17.9558 24.0233 18.1584 24.2295L18.5672 24.6383C18.7845 24.8556 18.9764 24.9849 19.1431 25.0264C19.3097 25.066 19.457 25.0218 19.585 24.8938C19.7112 24.7676 19.7558 24.6254 19.719 24.467C19.6831 24.3078 19.5615 24.1218 19.3544 23.9091L18.9359 23.4906ZM21.1291 21.9963C21.4283 22.2955 21.5995 22.569 21.6428 22.8167C21.6861 23.0643 21.5991 23.2968 21.3818 23.5141C21.1673 23.7286 20.9376 23.8166 20.6926 23.7779C20.4468 23.7383 20.1807 23.579 19.8944 23.3L19.5533 22.9589C19.2577 22.6634 19.0892 22.3927 19.0478 22.1468C19.0064 21.901 19.0947 21.669 19.313 21.4508C19.5293 21.2344 19.7581 21.1446 19.9993 21.1815C20.2397 21.2174 20.5057 21.3785 20.7976 21.6648L21.1291 21.9963ZM20.5242 21.9024C20.3078 21.686 20.12 21.559 19.9607 21.5212C19.8005 21.4825 19.6545 21.529 19.5229 21.6607C19.3921 21.7914 19.3461 21.936 19.3848 22.0944C19.4234 22.2527 19.5441 22.435 19.7466 22.6413L20.1554 23.0501C20.3727 23.2673 20.5647 23.3967 20.7313 23.4381C20.898 23.4777 21.0453 23.4335 21.1733 23.3056C21.2994 23.1794 21.344 23.0372 21.3072 22.8788C21.2713 22.7195 21.1498 22.5335 20.9426 22.3209L20.5242 21.9024ZM22.3044 20.9094L21.832 21.3817L22.6455 22.1952L22.3789 22.4617L20.3681 20.4509L21.0338 19.7852C21.2603 19.5587 21.4858 19.4363 21.7105 19.4179C21.9361 19.3985 22.1474 19.4874 22.3444 19.6844C22.4696 19.8096 22.5447 19.9528 22.5695 20.1139C22.5953 20.2741 22.5709 20.4375 22.4963 20.6042L23.8221 20.9854L23.8387 21.0019L23.5542 21.2864L22.3044 20.9094ZM21.6152 21.1649L22.0226 20.7575C22.1543 20.6258 22.2247 20.4873 22.2339 20.3418C22.244 20.1954 22.192 20.0651 22.0779 19.9509C21.9536 19.8266 21.821 19.7686 21.6801 19.7769C21.5402 19.7843 21.3998 19.8575 21.2589 19.9965L20.8528 20.4026L21.6152 21.1649ZM24.1232 20.7174L22.1124 18.7066L22.7698 18.0492C22.988 17.831 23.197 17.7122 23.3968 17.6929C23.5975 17.6726 23.7862 17.7509 23.963 17.9277C24.0569 18.0216 24.1135 18.1316 24.1329 18.2578C24.1513 18.383 24.1343 18.5114 24.0818 18.6431C24.2208 18.5648 24.3644 18.5372 24.5127 18.5602C24.6609 18.5814 24.794 18.6509 24.9118 18.7688C25.0923 18.9492 25.1756 19.1495 25.1618 19.3695C25.148 19.5896 25.0343 19.8064 24.8207 20.02L24.1232 20.7174ZM23.4479 19.5118L24.1716 20.2354L24.6094 19.7976C24.7327 19.6743 24.7981 19.5454 24.8055 19.4109C24.8128 19.2747 24.7603 19.1504 24.648 19.0381C24.4059 18.7959 24.1531 18.8065 23.8898 19.0698L23.4479 19.5118ZM23.2352 19.2991L23.6357 18.8986C23.7517 18.7826 23.8152 18.661 23.8263 18.534C23.8383 18.406 23.7945 18.2923 23.6951 18.1928C23.5846 18.0824 23.4723 18.0345 23.3581 18.0492C23.243 18.063 23.1196 18.1358 22.988 18.2674L22.5958 18.6596L23.2352 19.2991Z" fill="white"/>
</svg>
